HIERARCHY
ROOT locator2
{
  OFFSET 53.6172 30.1899 0.816905
  CHANNELS 6 Xposition Yposition Zposition Zrotation Xrotation Yrotation
  JOINT koshi
  {
    OFFSET 0 0 0
    CHANNELS 6 Xposition Yposition Zposition Zrotation Xrotation Yrotation
    JOINT sippo01
    {
      OFFSET 0 42.8363 -0.548134
      CHANNELS 6 Xposition Yposition Zposition Zrotation Xrotation Yrotation
      JOINT sippo02
      {
        OFFSET 0 44.0461 -3.28882
        CHANNELS 6 Xposition Yposition Zposition Zrotation Xrotation Yrotation
        JOINT sippo03
        {
          OFFSET 0 34.1929 -2.46662
          CHANNELS 6 Xposition Yposition Zposition Zrotation Xrotation Yrotation
          JOINT sippo04
          {
            OFFSET 0 30.0959 -1.75404
            CHANNELS 6 Xposition Yposition Zposition Zrotation Xrotation Yrotation
            JOINT sippo05
            {
              OFFSET 0 28.3637 -1.75404
              CHANNELS 6 Xposition Yposition Zposition Zrotation Xrotation Yrotation
              JOINT sippo06
              {
                OFFSET 0 31.6071 -3.2043
                CHANNELS 6 Xposition Yposition Zposition Zrotation Xrotation Yrotation
                End Site
                {
                  OFFSET 0 0 0
                }
              }
            }
          }
        }
      }
    }
    JOINT R_momo
    {
      OFFSET -27.891 13.5892 3.92723
      CHANNELS 6 Xposition Yposition Zposition Zrotation Xrotation Yrotation
      JOINT R_hiza
      {
        OFFSET 0 28.01 1.8232
        CHANNELS 6 Xposition Yposition Zposition Zrotation Xrotation Yrotation
        JOINT R_ashi
        {
          OFFSET 0 24.3992 -2.49174
          CHANNELS 6 Xposition Yposition Zposition Zrotation Xrotation Yrotation
          End Site
          {
            OFFSET 0 0 0
          }
        }
      }
    }
    JOINT L_momo
    {
      OFFSET 27.891 13.5892 3.92714
      CHANNELS 6 Xposition Yposition Zposition Zrotation Xrotation Yrotation
      JOINT L_hiza
      {
        OFFSET 0 28.0098 1.82319
        CHANNELS 6 Xposition Yposition Zposition Zrotation Xrotation Yrotation
        JOINT L_ashi
        {
          OFFSET 0 24.3992 -2.49171
          CHANNELS 6 Xposition Yposition Zposition Zrotation Xrotation Yrotation
          End Site
          {
            OFFSET 0 0 0
          }
        }
      }
    }
  }
  JOINT hara
  {
    OFFSET 0 2.15392 0
    CHANNELS 6 Xposition Yposition Zposition Zrotation Xrotation Yrotation
    JOINT mune
    {
      OFFSET 0 62.0609 0.472494
      CHANNELS 6 Xposition Yposition Zposition Zrotation Xrotation Yrotation
      JOINT R_kata
      {
        OFFSET 22.6695 9.65301 -5.3622
        CHANNELS 6 Xposition Yposition Zposition Zrotation Xrotation Yrotation
        JOINT R_hiji
        {
          OFFSET 0 25.813 1.69098
          CHANNELS 6 Xposition Yposition Zposition Zrotation Xrotation Yrotation
          JOINT R_te
          {
            OFFSET 0 28.5636 -0.966307
            CHANNELS 6 Xposition Yposition Zposition Zrotation Xrotation Yrotation
            End Site
            {
              OFFSET 0 0 0
            }
          }
        }
      }
      JOINT L_kata
      {
        OFFSET -22.6695 9.65298 -5.3622
        CHANNELS 6 Xposition Yposition Zposition Zrotation Xrotation Yrotation
        JOINT L_hiji
        {
          OFFSET 0 25.813 1.69102
          CHANNELS 6 Xposition Yposition Zposition Zrotation Xrotation Yrotation
          JOINT L_te
          {
            OFFSET 0 28.5636 -0.966295
            CHANNELS 6 Xposition Yposition Zposition Zrotation Xrotation Yrotation
            End Site
            {
              OFFSET 0 0 0
            }
          }
        }
      }
      JOINT kubi
      {
        OFFSET 0 23.1438 -0.944988
        CHANNELS 6 Xposition Yposition Zposition Zrotation Xrotation Yrotation
        JOINT atama
        {
          OFFSET 0 20.8625 4.12737
          CHANNELS 6 Xposition Yposition Zposition Zrotation Xrotation Yrotation
          JOINT ago
          {
            OFFSET 0 7.552 -7.58201
            CHANNELS 6 Xposition Yposition Zposition Zrotation Xrotation Yrotation
            End Site
            {
              OFFSET 0 0 0
            }
          }
        }
      }
    }
  }
}
MOTION
Frames:	4
Frame Time:	0.0333333
-0.000408163 26.5758 2.86732e-005 -90 -3.50835e-015 -90 0 0 0 -174.667 3.09288 0.502735 9.38773e-007 42.8363 -0.548136 2.96556 -15.9215 3.73638 1.78814e-006 44.0461 -3.28882 5.39096 9.38775 -5.28521 -9.53674e-007 34.193 -2.46661 6.36292 1.06386 -1.72819 -1.90735e-006 30.0959 -1.75404 5.98676 9.40325 -0.749673 0 28.3637 -1.75403 9.45644 -5.86747 5.77711 0 31.6072 -3.2043 5.21662 -6.13486 -5.43436 -27.891 13.5892 3.92723 117.517 -18.6447 -48.4403 -7.62939e-006 28.01 1.8232 12.0213 -82.3066 -3.94423 -7.62939e-006 24.3992 -2.49173 -149.806 63.033 -167.626 27.891 13.5892 3.92714 -102.219 -21.3629 59.5762 -3.8147e-006 28.0098 1.82319 -3.56844 -68.4988 9.56579 -7.10543e-015 24.3992 -2.49172 140.895 67.2572 166.764 6.07684e-007 2.15392 3.55271e-015 6.35014e-008 -0.478877 -6.35014e-008 0.030373 62.0609 0.472498 -1.51661e-021 -1.25682e-016 1.51661e-021 22.6742 9.64191 -5.36225 -148.435 2.75898 46.5032 0 25.813 1.69097 179.965 -77.8777 179.748 -3.8147e-006 28.5636 -0.966314 40.9749 13.2221 -94.4127 -22.6648 9.66409 -5.36215 130.723 -5.35393 -52.4432 -3.8147e-006 25.813 1.69102 -179.768 -75.3005 -178.039 -7.6294e-006 28.5636 -0.966296 -44.2904 34.5194 110.025 0.0113245 23.1438 -0.944994 -0.102359 -4.02497 -0.0841003 -3.72529e-008 20.8625 4.12737 -0.0682989 -3.9971 -0.0336677 4.47035e-008 7.55205 -7.582 -7.44013e-007 4.26938 1.00454e-005 
0.329668 27.2405 -0.686434 -90 -3.50835e-015 -90 0 0 0 -176.294 2.48686 0.53355 9.38773e-007 42.8363 -0.548136 2.83982 -15.4298 4.15157 1.78814e-006 44.0461 -3.28882 4.94068 10.1885 -5.08362 -8.88524e-007 34.193 -2.46661 5.81808 1.46572 -2.02708 -1.71441e-006 30.0959 -1.75404 3.95327 9.25647 -1.84941 1.10714e-006 28.3637 -1.75403 8.82774 -3.51175 5.44129 1.18578e-006 31.6072 -3.2043 4.87278 -4.96582 -5.99448 -27.891 13.5892 3.92723 118.603 -18.974 -49.3379 -7.62939e-006 28.01 1.8232 7.17249 -78.93 -7.48623 -7.72123e-006 24.3992 -2.49173 -148.415 66.3273 -168.296 27.891 13.5892 3.92714 -98.8298 -23.529 60.5031 -3.8147e-006 28.0098 1.82319 -3.44804 -68.3482 10.4017 4.24381e-008 24.3992 -2.49172 143.397 64.8094 165.42 6.07684e-007 2.15392 -7.10543e-015 -1.30725 -0.850479 -0.0910998 -4.00964e-009 62.0609 0.472498 -1.98785e-016 -1.98202e-016 -2.48481e-017 22.6695 9.653 -5.36221 -147.937 1.99028 46.3466 0 25.813 1.69097 179.929 -76.4989 179.48 -3.81061e-006 28.5636 -0.966314 41.4036 13.7043 -95.5534 -22.6695 9.65299 -5.3622 131.116 -3.38159 -50.5216 -3.8147e-006 25.813 1.69102 -179.714 -76.5876 -178.761 -7.65314e-006 28.5636 -0.966296 -44.8904 33.6069 107.068 3.38243e-009 23.1438 -0.944994 0.939105 -3.11331 -0.86042 -3.72536e-008 20.8625 4.12737 0.988997 -3.07561 -0.968042 4.47032e-008 7.55205 -7.582 -1.08391e-005 4.52997 1.08426e-005 
0.653334 27.8922 -1.35957 -90 -3.50835e-015 -90 0 0 0 -178.384 1.88892 0.547188 9.38773e-007 42.8363 -0.548136 2.71724 -14.9472 4.56114 1.78814e-006 44.0461 -3.28882 3.78259 11.4561 -4.62718 -7.26302e-007 34.193 -2.46661 4.31597 2.25057 -2.57014 -1.19786e-006 30.0959 -1.75403 1.82141 9.33176 -3.0558 2.5875e-006 28.3637 -1.75403 7.46712 0.925565 4.92411 2.95484e-006 31.6072 -3.2043 4.24542 -2.2453 -7.32658 -27.891 13.5892 3.92723 121.207 -19.0918 -49.7331 -7.62939e-006 28.01 1.8232 4.63841 -75.6056 -8.14508 -7.77918e-006 24.3992 -2.49173 -145.85 69.9139 -170.134 27.891 13.5892 3.92714 -93.1808 -25.4339 61.9329 -3.8147e-006 28.0098 1.82319 -3.33109 -68.1996 11.6379 1.0637e-007 24.3992 -2.49172 144.753 62.832 165.247 6.07684e-007 2.15392 -3.55271e-015 -2.75838 -0.996818 -0.213774 -5.58794e-009 62.0609 0.472498 -1.04123e-012 -6.83322e-017 -2.48481e-017 22.6695 9.653 -5.36221 -148.673 -0.580056 46.1042 0 25.813 1.69097 179.905 -74.4799 178.363 -3.7961e-006 28.5636 -0.966314 41.5966 13.5632 -98.9004 -22.6695 9.65299 -5.3622 130.463 -2.13418 -49.5417 -3.8147e-006 25.813 1.69102 -179.503 -81.566 -179.309 -7.67425e-006 28.5636 -0.966296 -46.2564 32.352 103.842 2.70858e-009 23.1438 -0.944994 2.42189 -3.02091 -3.3181 -3.72537e-008 20.8625 4.12737 2.28407 -3.07329 -3.60999 4.47032e-008 7.55205 -7.582 -2.39936e-009 5.26185 6.79137e-008 
0.826675 28.5505 -1.50159 -90 -3.50835e-015 -90 0 0 0 179.506 1.28141 0.515684 9.38773e-007 42.8363 -0.548136 2.58476 -13.6442 4.93938 1.78814e-006 44.0461 -3.28882 1.97676 12.7412 -3.87844 -4.80288e-007 34.193 -2.46661 2.11522 3.55431 -3.21701 -4.24401e-007 30.0959 -1.75403 -0.404546 9.74736 -4.29965 4.37123e-006 28.3637 -1.75402 5.47308 3.76968 4.87556 5.40594e-006 31.6072 -3.20429 3.26575 1.19539 -9.11295 -27.891 13.5892 3.92723 124.618 -19.391 -49.9182 -7.62939e-006 28.01 1.8232 3.04534 -72.2304 -7.831 -7.8134e-006 24.3992 -2.49173 -142.01 73.4774 -173.168 27.891 13.5892 3.92714 -85.8409 -27.6267 63.9766 -3.8147e-006 28.0098 1.82319 -2.93374 -65.8228 13.1881 2.72315e-007 24.3992 -2.49172 145.904 60.8223 164.754 6.07684e-007 2.15392 0 -4.48935 -0.550668 -0.335238 -5.58793e-009 62.0609 0.472498 -1.00179e-005 6.11884e-015 -0 22.6695 9.653 -5.36221 -149.515 -3.68344 43.7096 -2.84217e-014 25.813 1.69097 179.886 -72.4411 177.24 -3.77765e-006 28.5636 -0.966314 43.7901 13.0449 -103.536 -22.6695 9.65299 -5.3622 129.774 -0.908372 -45.7249 -3.8147e-006 25.813 1.69102 -178.669 -86.5933 -179.098 -7.67975e-006 28.5636 -0.966296 -46.8492 29.8875 99.0231 2.70858e-009 23.1438 -0.944994 4.04581 -3.47018 -6.70271 -3.72537e-008 20.8625 4.12737 3.46407 -3.88771 -7.04094 4.47032e-008 7.55205 -7.582 3.30815e-009 3.34509 8.89256e-009 
